<?xml version="1.0" standalone="no"?>
<!DOCTYPE svg PUBLIC "-//W3C//DTD SVG 20010904//EN"
 "http://www.w3.org/TR/2001/REC-SVG-20010904/DTD/svg10.dtd">
<svg version="1.0" xmlns="http://www.w3.org/2000/svg"
 width="1080.000000pt" height="1080.000000pt" viewBox="0 0 1080.000000 1080.000000"
 preserveAspectRatio="xMidYMid meet">
<metadata>
Created by potrace 1.14, written by Peter Selinger 2001-2017
</metadata>
<g transform="translate(0.000000,1080.000000) scale(0.100000,-0.100000)"
fill="#000000" stroke="none">
<path d="M5025 9812 c-38 -2 -75 -8 -82 -14 -9 -7 -17 -7 -27 1 -36 30 -224
-52 -201 -88 3 -6 -1 -11 -10 -11 -8 0 -30 -16 -47 -36 -39 -44 -58 -32 -29
20 12 20 21 47 20 59 0 19 -2 18 -12 -8 -22 -56 -37 -74 -64 -77 -16 -2 -27
-7 -26 -13 1 -6 -27 -10 -70 -9 -81 1 -140 -23 -162 -66 -13 -26 -25 -33 -105
-66 -25 -10 -47 -21 -50 -25 -11 -14 -71 -19 -76 -6 -3 8 -20 -2 -51 -30 -25
-24 -52 -43 -59 -43 -8 0 -14 -7 -14 -15 0 -18 -31 -55 -46 -55 -6 0 -14 -9
-17 -19 -4 -15 -11 -18 -27 -14 -21 6 -22 3 -16 -20 5 -22 3 -27 -13 -27 -16
0 -35 -31 -32 -53 1 -4 -16 -4 -38 -1 -35 6 -41 3 -61 -24 -15 -20 -28 -28
-41 -25 -29 8 -51 -16 -44 -46 4 -21 0 -29 -25 -43 -30 -17 -37 -44 -31 -111
1 -9 -5 -20 -13 -23 -9 -3 -16 -11 -16 -18 0 -6 -11 -24 -25 -40 -14 -16 -25
-39 -25 -51 0 -13 -7 -28 -15 -35 -8 -7 -15 -18 -15 -24 0 -6 -16 -29 -35 -50
-19 -21 -32 -43 -29 -48 3 -5 -2 -15 -12 -22 -11 -8 -15 -21 -12 -34 4 -12 0
-26 -8 -33 -8 -6 -14 -22 -14 -35 0 -13 -14 -37 -30 -54 -33 -33 -38 -50 -16
-50 18 0 29 -29 17 -44 -4 -6 -11 -27 -15 -47 -4 -21 -13 -43 -21 -49 -9 -7
-23 -28 -32 -47 -9 -19 -27 -39 -40 -44 -25 -9 -29 -19 -13 -35 13 -13 2 -44
-15 -44 -24 0 -66 -150 -48 -172 6 -7 10 -33 8 -58 -2 -25 -4 -52 -4 -60 0
-55 0 -67 6 -80 3 -8 5 -35 5 -60 0 -25 4 -50 9 -56 6 -7 9 -27 8 -45 0 -19 4
-65 9 -104 6 -46 6 -74 0 -82 -7 -9 -5 -15 6 -19 12 -5 15 -15 10 -45 -5 -28
-3 -39 6 -39 8 0 10 -10 6 -33 -3 -18 -3 -37 1 -40 4 -4 8 -26 10 -50 2 -23
10 -45 18 -50 9 -5 13 -17 9 -35 -3 -16 5 -57 19 -98 14 -42 21 -78 17 -90 -8
-21 -2 -83 10 -99 4 -5 10 -26 14 -46 3 -20 20 -51 36 -69 17 -19 30 -38 30
-42 0 -5 9 -6 20 -3 24 8 28 -19 4 -33 -19 -11 -44 -80 -38 -107 2 -11 8 -66
13 -122 10 -109 28 -153 91 -221 16 -18 30 -38 30 -44 0 -6 11 -31 24 -57 13
-25 36 -80 51 -121 15 -41 34 -90 42 -109 l16 -34 14 24 c14 23 14 22 7 -16
-10 -61 -5 -115 12 -133 10 -10 14 -25 10 -42 -2 -15 1 -36 8 -46 8 -10 14
-40 14 -66 1 -27 6 -57 12 -67 5 -11 7 -26 4 -35 -3 -8 -2 -21 3 -28 8 -13 27
-96 39 -168 3 -19 14 -52 25 -73 10 -21 19 -48 19 -60 1 -12 7 -33 15 -47 8
-14 14 -36 15 -50 0 -32 57 -171 76 -186 8 -6 14 -22 14 -34 0 -13 11 -42 24
-64 13 -23 34 -68 45 -100 11 -32 27 -66 35 -75 9 -9 25 -39 37 -66 12 -28 34
-66 49 -85 15 -19 34 -48 43 -65 8 -16 25 -40 36 -52 12 -12 21 -27 21 -33 0
-5 4 -10 9 -10 5 0 15 -16 22 -35 7 -19 17 -35 23 -35 5 0 33 -25 62 -55 63
-65 67 -82 61 -267 l-4 -128 -44 -40 c-24 -22 -54 -40 -66 -40 -13 0 -23 -4
-23 -8 0 -4 -24 -16 -52 -27 -29 -10 -73 -29 -98 -41 -58 -31 -189 -126 -190
-139 -1 -14 -36 -37 -90 -60 -65 -27 -141 -79 -193 -130 -24 -25 -48 -45 -53
-45 -13 0 -163 -78 -195 -101 -15 -10 -33 -19 -41 -19 -7 0 -24 -9 -38 -20
-14 -11 -29 -20 -34 -20 -5 0 -17 -6 -25 -14 -14 -12 -56 -36 -166 -95 -16 -9
-39 -23 -50 -32 -11 -9 -54 -35 -97 -57 -42 -22 -93 -51 -115 -64 -21 -13 -58
-32 -83 -43 -25 -10 -63 -30 -85 -44 -22 -14 -58 -35 -80 -46 -22 -11 -80 -43
-130 -72 -49 -28 -110 -59 -135 -69 -25 -9 -51 -22 -59 -28 -7 -5 -21 -15 -32
-21 -111 -62 -279 -192 -347 -268 -37 -41 -148 -157 -222 -232 -42 -43 -110
-150 -110 -173 0 -8 -17 -40 -37 -71 -41 -61 -65 -102 -83 -141 -70 -150 -70
-149 -175 -420 -45 -116 -125 -363 -125 -384 0 -9 -4 -24 -9 -34 -23 -45 -41
-94 -41 -111 0 -10 -7 -32 -15 -47 -8 -16 -15 -41 -15 -55 0 -14 -3 -29 -7
-33 -4 -4 -13 -35 -20 -69 -14 -67 -54 -203 -83 -282 -10 -27 -21 -62 -24 -77
l-6 -28 4960 0 4960 0 0 971 0 970 -27 37 c-16 20 -40 47 -55 60 -16 13 -28
30 -28 38 0 7 -20 35 -45 61 -24 26 -45 51 -45 56 0 4 -7 7 -15 7 -9 0 -15 9
-15 23 0 15 -18 42 -45 69 -25 25 -45 49 -45 52 0 3 -13 19 -29 35 -34 34
-101 133 -101 148 0 6 -7 16 -15 23 -8 7 -15 19 -15 26 0 7 -11 38 -25 68 -23
50 -29 56 -63 61 -20 4 -50 13 -67 20 -62 27 -112 46 -121 44 -5 -1 -11 0 -14
1 -3 1 -14 3 -25 5 -10 2 -28 8 -40 14 -25 12 -93 33 -120 37 -23 4 -81 25
-110 40 -11 6 -45 19 -75 30 -30 10 -62 24 -71 31 -8 7 -22 13 -30 14 -8 0
-32 11 -54 24 -22 14 -56 31 -75 40 -19 8 -43 20 -52 25 -10 6 -25 10 -33 10
-8 0 -15 5 -15 10 0 6 -11 10 -25 10 -13 0 -41 7 -62 16 -47 21 -62 26 -143
52 -129 42 -199 70 -230 92 -25 18 -47 23 -95 24 -55 1 -67 5 -101 34 -21 18
-44 37 -51 42 -6 5 -31 12 -55 16 -62 8 -221 46 -233 54 -5 4 -28 13 -50 19
-22 7 -49 16 -60 21 -55 25 -255 78 -318 84 -29 2 -46 13 -76 45 -40 43 -83
55 -109 28 -16 -15 -131 -37 -138 -25 -3 4 -10 6 -15 2 -5 -3 -15 -2 -22 3 -7
5 -28 10 -47 12 -38 3 -99 28 -115 47 -15 17 -44 24 -51 12 -4 -7 -9 -6 -14 3
-5 7 -34 14 -69 16 -50 3 -62 1 -68 -13 -4 -11 3 -25 24 -43 17 -14 33 -34 37
-45 9 -25 -10 -120 -50 -251 -18 -60 -36 -123 -39 -140 -4 -16 -10 -39 -15
-50 -4 -11 -15 -40 -25 -65 -50 -132 -133 -253 -195 -285 -15 -8 -35 -21 -42
-29 -8 -8 -39 -29 -69 -47 -30 -19 -61 -39 -69 -46 -39 -33 -262 -179 -320
-209 -104 -55 -283 -116 -397 -134 -196 -32 -710 -32 -923 0 -80 12 -163 24
-185 26 -102 12 -278 71 -355 119 -19 12 -45 25 -57 29 -13 4 -23 12 -23 17 0
5 -6 9 -13 9 -17 0 -49 39 -41 51 4 7 10 6 19 -1 18 -15 39 14 31 45 -5 18 -2
25 8 25 9 0 12 -7 9 -20 -4 -14 0 -20 12 -20 14 0 16 6 12 30 -5 22 -3 30 8
30 8 0 15 5 15 10 0 6 9 10 20 10 11 0 20 -4 20 -9 0 -5 9 -11 20 -14 11 -3
18 -1 15 4 -3 4 3 17 14 28 12 12 18 27 15 36 -5 12 3 15 37 15 42 0 43 1 19
13 -40 20 -32 42 18 44 36 2 42 -1 42 -18 0 -11 5 -17 10 -14 6 3 10 15 10 26
0 11 8 23 17 26 10 4 28 20 42 35 13 16 30 27 37 24 9 -3 15 11 20 50 3 30 11
54 16 54 5 0 6 -5 3 -10 -9 -15 4 -50 20 -50 20 0 25 23 9 45 -19 26 -19 95 1
95 8 0 15 -7 15 -15 0 -19 19 -19 26 0 4 8 15 15 25 15 15 0 19 7 19 40 0 40
13 53 24 24 9 -23 51 -14 49 10 -2 28 21 46 61 46 21 0 36 5 36 12 0 9 3 9 12
0 18 -18 46 -14 60 8 7 11 17 20 23 20 6 0 16 9 23 20 8 14 21 20 38 18 33 -4
57 27 34 42 -13 8 -12 10 3 10 10 0 22 -12 28 -27 7 -20 12 -24 18 -14 6 9 11
10 15 2 9 -13 46 -15 46 -2 0 6 -5 13 -11 17 -8 4 -7 9 2 14 10 7 9 14 -4 34
-9 14 -17 30 -17 36 0 14 37 13 42 -1 2 -7 23 -12 46 -13 l42 -1 0 53 c0 45
-3 52 -19 52 -16 0 -21 -8 -24 -42 -3 -38 -4 -36 -5 14 -2 64 13 84 36 50 8
-12 21 -22 29 -22 13 0 15 -10 11 -50 -4 -38 -2 -50 8 -50 8 0 14 5 14 10 0 6
7 10 15 10 11 0 15 12 15 51 0 43 4 54 25 71 32 25 32 36 -2 41 -16 3 -8 4 17
3 43 -1 45 -2 50 -36 12 -71 34 -81 36 -15 1 29 -3 45 -12 47 -9 2 -11 8 -4
17 7 12 12 11 29 -10 l20 -24 1 25 c0 20 -2 22 -10 10 -7 -11 -10 -5 -10 23 0
20 5 37 10 37 6 0 10 5 10 10 0 6 -7 10 -15 10 -25 0 -17 17 15 30 29 12 41
30 20 30 -5 0 -10 11 -10 25 0 27 27 35 36 11 7 -17 34 -10 34 9 0 8 12 15 27
17 18 2 29 10 31 22 6 28 29 48 65 55 24 5 34 14 42 38 14 44 23 50 39 28 10
-14 15 -15 21 -5 8 13 -12 30 -52 41 -15 5 -27 0 -42 -17 -12 -13 -28 -24 -36
-24 -8 0 -15 -4 -15 -10 0 -5 -10 -10 -22 -10 -24 0 -93 -22 -104 -32 -3 -4
-19 -2 -36 4 -24 8 -32 8 -39 -3 -6 -10 -11 -11 -16 -3 -11 16 -76 12 -90 -6
-11 -13 -14 -13 -22 -1 -8 12 -12 12 -25 2 -14 -11 -16 -11 -16 5 -1 18 -1 18
-15 0 -8 -11 -15 -14 -15 -7 0 7 -5 9 -12 4 -7 -4 -43 -6 -80 -4 -54 2 -69 -1
-74 -13 -10 -26 -27 -18 -20 9 6 24 -7 35 -19 15 -3 -5 -12 -7 -20 -3 -8 3
-15 0 -15 -7 0 -10 -3 -10 -15 0 -13 10 -19 9 -35 -5 -11 -10 -23 -15 -27 -11
-4 4 -1 11 6 15 8 5 11 17 6 30 -3 12 -11 19 -16 15 -6 -3 -19 2 -29 11 -22
20 -40 12 -41 -18 -1 -20 -2 -20 -6 -2 -6 26 -31 45 -61 45 -19 0 -22 4 -17
20 4 14 2 20 -8 20 -8 0 -22 9 -32 20 -10 11 -24 20 -31 20 -8 0 -13 9 -11 22
1 17 -3 22 -16 20 -12 -2 -21 7 -28 27 -11 30 -29 43 -29 20 0 -14 -18 6 -50
53 -14 21 -28 38 -32 38 -5 0 -8 4 -8 10 0 17 -71 110 -81 105 -4 -3 -17 15
-29 40 -11 25 -27 45 -35 45 -8 0 -15 9 -15 20 0 24 -13 26 -31 4 -7 -8 -21
-13 -30 -11 -10 3 -19 1 -21 -5 -2 -5 -15 0 -30 11 -29 24 -45 26 -50 10 -2
-7 -13 -9 -25 -5 -14 4 -20 12 -16 21 3 9 -3 18 -13 22 -11 4 -25 15 -32 25
-9 13 -20 17 -34 12 -17 -5 -20 -3 -15 10 4 10 1 19 -8 22 -8 4 -15 12 -15 19
0 7 -6 15 -14 18 -8 3 -16 16 -18 29 -2 13 -13 27 -25 33 -21 9 -26 20 -41 95
-6 26 -12 34 -26 32 -13 -2 -16 2 -13 15 3 10 8 35 11 55 6 32 4 37 -15 40
-27 4 -51 38 -31 45 17 6 16 83 -1 83 -17 0 -37 64 -37 119 0 43 -16 57 -22
19 -2 -16 -9 -5 -23 37 -11 33 -24 63 -28 66 -16 12 -37 62 -37 89 0 15 -6 33
-14 39 -9 8 -12 25 -9 55 3 25 1 50 -6 58 -6 7 -29 36 -51 65 -21 28 -48 54
-60 58 -15 5 -20 15 -20 41 0 19 -5 34 -11 34 -6 0 -8 -9 -4 -20 5 -14 2 -20
-9 -20 -9 0 -16 9 -16 20 0 11 -4 20 -10 20 -5 0 -10 11 -10 23 0 13 -9 32
-20 42 -16 14 -17 21 -8 32 8 9 8 17 2 21 -6 4 -11 16 -11 27 -1 11 -2 29 -2
40 -1 11 1 36 3 55 3 20 -1 38 -7 42 -9 6 -9 8 1 8 12 0 17 32 6 43 -3 3 -25
62 -49 131 -50 142 -72 264 -57 304 6 15 13 60 16 100 5 79 25 124 64 150 l24
16 -25 -38 c-40 -57 -52 -134 -38 -241 11 -96 84 -335 95 -316 4 6 12 11 17
11 6 0 8 -4 5 -9 -3 -5 5 -11 19 -13 20 -4 27 -1 31 18 6 25 15 29 94 42 26 5
44 13 43 20 -4 16 14 15 20 0 3 -7 6 -3 6 10 1 22 25 31 36 12 4 -6 15 -4 30
6 14 9 23 19 20 24 -6 10 51 50 74 50 11 0 22 -6 24 -12 4 -10 8 -9 16 2 7 10
34 15 97 16 110 3 160 21 202 76 18 23 32 49 32 59 0 12 6 16 21 12 16 -5 19
-11 14 -34 -6 -27 -5 -29 27 -29 31 0 67 -8 127 -26 l24 -7 -22 39 c-13 21
-45 57 -73 79 -28 22 -58 47 -66 55 -8 8 -42 17 -76 20 -52 5 -289 -9 -398
-24 -33 -4 -38 -2 -38 15 0 11 -6 35 -14 54 -9 22 -11 37 -5 41 5 3 7 14 4 25
-5 14 1 24 24 37 17 9 31 20 31 25 0 4 5 7 11 7 5 0 7 -5 4 -11 -7 -10 38 -6
88 8 9 2 17 0 17 -5 0 -13 79 -20 83 -7 3 7 8 7 18 0 8 -6 48 -10 89 -9 62 1
78 -2 93 -18 12 -12 26 -17 38 -13 14 5 21 0 27 -16 7 -18 18 -23 53 -25 104
-8 113 -14 105 -66 -7 -43 6 -78 30 -78 25 0 46 -28 51 -68 4 -27 10 -38 22
-38 68 -1 82 -5 91 -28 14 -38 31 -42 24 -6 -7 33 -3 36 28 19 11 -6 18 -7 14
-1 -3 5 -7 52 -8 103 -2 77 0 94 12 94 17 0 27 -84 24 -190 -1 -33 0 -53 3
-45 14 47 13 45 24 30 9 -13 10 -12 5 2 -3 10 1 21 10 26 12 7 14 21 8 75 -4
37 -10 67 -14 67 -4 0 -7 27 -7 60 0 56 9 76 20 48 3 -7 6 4 6 25 1 23 -3 36
-9 32 -5 -3 -10 -14 -10 -23 0 -27 -25 5 -27 36 -1 15 -5 44 -9 65 -5 33 -8
36 -19 21 -11 -16 -15 -16 -51 4 -21 11 -50 23 -64 25 -48 9 -125 30 -157 43
-17 8 -36 14 -43 14 -6 0 -9 4 -6 8 2 4 -3 8 -12 9 -64 5 -103 17 -98 29 4 10
-3 14 -19 14 -15 0 -31 10 -41 25 -20 30 -38 33 -31 5 7 -26 -9 -25 -52 1 -32
19 -32 21 -15 34 18 14 17 14 -8 15 -20 0 -26 -4 -22 -15 4 -9 0 -15 -9 -15
-9 0 -22 -3 -30 -6 -8 -3 -21 1 -28 9 -7 8 -23 12 -34 10 -15 -4 -17 -2 -6 5
11 8 10 12 -8 21 -26 15 -27 31 -1 38 11 3 20 10 20 15 0 5 9 6 20 3 18 -6 20
-2 20 47 0 48 4 57 30 78 16 14 29 32 30 41 0 16 31 36 64 41 29 4 32 28 4 29
-17 1 -12 4 17 14 33 10 39 16 37 35 -3 20 0 22 23 18 17 -4 28 -1 32 8 7 20
40 17 47 -3 6 -15 9 -15 16 -3 5 8 7 17 5 20 -2 3 19 3 46 2 46 -4 49 -3 47
20 -3 20 2 23 35 26 33 3 38 6 34 23 -4 15 0 19 19 19 16 0 22 -4 18 -14 -3
-8 -1 -17 5 -21 6 -3 11 1 11 9 0 9 11 18 25 22 18 4 25 13 25 30 0 17 6 24
20 24 11 0 28 4 38 9 9 6 41 17 69 26 51 16 79 13 68 -6 -4 -5 1 -9 10 -9 8 0
18 -7 22 -15 3 -11 18 -15 42 -15 62 2 101 -14 101 -42 0 -15 5 -18 19 -13 11
3 22 2 25 -4 7 -10 56 9 56 22 0 14 26 7 48 -13 l22 -20 6 25 c7 29 5 29 39
11 14 -8 21 -16 15 -19 -6 -3 -5 -4 2 -3 7 2 12 13 10 24 -4 26 1 27 34 5 24
-15 25 -15 31 5 3 12 9 19 14 16 5 -3 9 0 9 5 0 6 7 11 15 11 8 0 15 -6 15
-14 0 -7 11 -16 25 -18 23 -5 25 -2 25 27 0 38 21 59 50 50 11 -3 20 -2 20 3
0 20 34 23 47 5 12 -15 16 -16 34 -4 19 11 25 9 50 -15 16 -15 29 -24 29 -19
0 5 5 4 11 -2 12 -12 54 5 71 29 7 10 8 9 4 -4 -3 -11 4 -25 21 -38 34 -26 57
-26 50 0 -4 15 0 20 13 20 11 0 21 -4 24 -8 9 -15 106 -12 106 2 0 8 9 16 19
19 17 4 19 11 14 48 l-6 43 29 -28 c16 -15 46 -36 66 -47 20 -10 43 -28 51
-40 l15 -21 11 21 c10 17 8 24 -9 38 -20 18 -27 57 -11 67 5 3 12 -6 15 -19 4
-14 11 -23 16 -20 12 8 50 -17 50 -33 0 -7 10 -16 23 -21 13 -5 29 -16 36 -25
12 -14 15 -14 36 0 15 10 29 12 37 7 7 -4 30 -8 51 -9 33 0 37 3 38 25 1 14 1
32 0 39 -1 6 3 12 9 12 5 0 10 -7 10 -15 0 -8 8 -15 18 -15 22 0 62 -40 62
-61 0 -8 13 -20 30 -27 20 -9 32 -24 38 -46 12 -41 58 -115 77 -123 8 -3 15
-11 15 -18 0 -7 7 -16 16 -19 10 -4 14 -12 10 -22 -4 -11 1 -22 14 -31 11 -8
20 -25 20 -39 0 -14 6 -31 13 -39 10 -9 13 -39 12 -102 -1 -64 4 -99 16 -130
30 -71 72 -276 82 -398 3 -41 7 -50 23 -50 17 0 19 8 20 81 1 45 4 86 8 93 4
6 4 28 -1 48 -4 21 -6 42 -5 47 2 5 -4 16 -11 25 -8 9 -21 30 -29 46 -12 25
-13 34 -2 55 8 14 14 35 14 46 0 12 7 24 15 28 8 3 15 12 15 20 0 8 9 21 19
28 10 8 21 25 23 38 2 17 10 26 26 28 24 4 29 -7 10 -26 -9 -9 -9 -12 0 -12
18 0 32 33 21 52 -6 11 -6 19 1 23 14 9 12 42 -2 48 -10 4 -10 8 1 15 8 6 15
27 15 47 1 20 6 39 12 43 11 8 11 62 1 80 -4 6 0 12 10 14 10 2 18 13 18 28 1
14 2 51 3 83 2 43 6 57 17 57 20 0 19 8 -10 58 -13 23 -20 42 -14 42 5 0 9 7
9 15 0 8 5 15 11 15 7 0 9 10 7 25 -3 14 -1 25 4 25 5 0 7 13 3 29 -3 17 -2
32 4 36 7 4 9 26 5 61 -6 44 -3 58 11 74 15 16 15 24 5 57 -6 21 -17 49 -23
62 -9 19 -9 25 1 28 17 6 15 21 -10 61 -14 22 -23 56 -25 90 -2 30 -8 62 -13
71 -6 12 -5 22 2 29 9 9 7 16 -6 31 -12 14 -14 20 -5 23 8 3 10 11 4 24 -4 10
-9 32 -11 48 -1 16 -12 37 -24 46 -14 11 -23 31 -27 61 -3 24 -11 50 -17 58
-5 7 -11 21 -11 30 -1 9 -2 28 -3 42 -1 14 -13 38 -26 52 -13 14 -27 45 -31
69 -5 30 -19 55 -46 83 -22 22 -39 46 -39 53 0 17 -22 55 -37 65 -7 4 -13 14
-13 21 0 8 -7 16 -15 20 -8 3 -15 17 -15 31 0 16 -6 25 -15 25 -9 0 -18 8 -22
18 -3 9 -22 33 -42 52 -20 19 -45 52 -55 72 -11 20 -30 41 -43 47 -27 12 -30
15 -128 99 -8 6 -18 12 -23 12 -4 0 -28 19 -53 43 -24 23 -64 58 -89 77 -24
19 -51 42 -60 50 -9 9 -30 22 -48 29 -18 7 -32 16 -32 20 0 10 -59 33 -69 27
-5 -4 -13 -1 -16 4 -4 6 -17 15 -28 21 -12 5 -29 13 -37 18 -67 38 -179 80
-220 83 -19 1 -42 7 -50 14 -8 7 -37 14 -64 16 -28 3 -52 10 -54 16 -2 7 -21
12 -42 12 -21 0 -40 5 -42 12 -2 6 -17 13 -34 15 -50 7 -246 8 -314 1 -40 -4
-88 -2 -125 6 -43 9 -86 10 -153 4 -72 -7 -99 -6 -115 4 -14 8 -47 12 -92 10z
m-657 -239 c-2 -10 -14 -20 -28 -22 -25 -3 -25 -3 -6 18 23 26 39 27 34 4z
m-1001 -1035 c-3 -8 -6 -5 -6 6 -1 11 2 17 5 13 3 -3 4 -12 1 -19z m1773 -978
c0 -5 -4 -10 -10 -10 -5 0 -10 5 -10 10 0 6 5 10 10 10 6 0 10 -4 10 -10z
m159 3 c0 -5 -4 -17 -9 -28 -8 -18 -9 -17 -9 8 -1 15 4 27 9 27 6 0 10 -3 9
-7z m-356 -58 c4 -8 2 -17 -3 -20 -6 -4 -10 3 -10 14 0 25 6 27 13 6z m1967
-15 c0 -5 -4 -10 -10 -10 -5 0 -10 5 -10 10 0 6 5 10 10 10 6 0 10 -4 10 -10z
m40 -30 c0 -5 -7 -10 -15 -10 -8 0 -15 5 -15 10 0 6 7 10 15 10 8 0 15 -4 15
-10z m-2686 -412 c-2 -3 2 -8 8 -11 7 -2 10 -8 6 -12 -11 -12 -38 15 -38 37 0
16 2 17 14 6 8 -7 12 -16 10 -20z m-39 -9 c-4 -5 -1 -9 4 -9 6 0 11 -4 11 -10
0 -5 -7 -10 -16 -10 -13 0 -14 -3 -4 -15 13 -16 11 -18 -42 -29 -37 -8 -46 11
-11 26 27 11 27 12 6 15 -31 6 -28 15 10 33 33 16 52 16 42 -1z m655 -323 c19
-8 49 -19 65 -25 17 -7 41 -21 55 -31 l25 -20 -35 7 c-19 3 -46 14 -60 23 -82
57 -136 47 -127 -22 4 -32 2 -38 -13 -38 -21 0 -32 34 -20 65 10 28 5 35 -21
28 -12 -3 -19 -14 -19 -29 0 -13 -4 -24 -9 -24 -6 0 -9 22 -9 48 l1 48 66 -8
c36 -4 82 -14 101 -22z m220 -14 c0 -13 -12 -22 -22 -16 -10 6 -1 24 13 24 5
0 9 -4 9 -8z m-1245 -12 c-3 -5 -11 -10 -16 -10 -6 0 -7 5 -4 10 3 6 11 10 16
10 6 0 7 -4 4 -10z m1005 -90 c0 -5 -4 -10 -10 -10 -5 0 -10 5 -10 10 0 6 5
10 10 10 6 0 10 -4 10 -10z m187 -12 c-3 -8 -6 -5 -6 6 -1 11 2 17 5 13 3 -3
4 -12 1 -19z m-129 1 c-2 -6 -8 -10 -13 -10 -5 0 -11 4 -13 10 -2 6 4 11 13
11 9 0 15 -5 13 -11z m-1336 -79 c3 -16 1 -30 -4 -30 -4 0 -8 14 -8 30 0 17 2
30 4 30 2 0 6 -13 8 -30z m1280 -10 c3 -20 0 -30 -9 -30 -13 0 -18 41 -6 53
10 10 10 9 15 -23z m-714 -12 c-2 -6 -10 -14 -16 -16 -7 -2 -10 2 -6 12 7 18
28 22 22 4z m12 -283 c0 -8 -4 -15 -9 -15 -13 0 -22 16 -14 24 11 11 23 6 23
-9z m-545 -125 c3 -5 1 -10 -4 -10 -6 0 -11 5 -11 10 0 6 2 10 4 10 3 0 8 -4
11 -10z m15 -116 c0 -8 -4 -12 -10 -9 -5 3 -10 10 -10 16 0 5 5 9 10 9 6 0 10
-7 10 -16z m175 7 c3 -5 1 -12 -5 -16 -5 -3 -10 1 -10 9 0 18 6 21 15 7z
m-130 -51 c3 -5 -4 -6 -15 -3 -17 5 -18 1 -13 -33 4 -30 3 -36 -6 -28 -6 6
-14 27 -17 46 -6 34 -5 35 20 31 14 -3 28 -9 31 -13z m135 -30 c0 -5 -7 -10
-15 -10 -8 0 -15 5 -15 10 0 6 7 10 15 10 8 0 15 -4 15 -10z m-134 -117 c-10
-10 -19 5 -10 18 6 11 8 11 12 0 2 -7 1 -15 -2 -18z m2164 -2062 c0 -12 -28
-22 -34 -12 -3 5 -3 11 1 15 9 9 33 7 33 -3z m-160 -73 c0 -16 -3 -19 -11 -11
-6 6 -8 16 -5 22 11 17 16 13 16 -11z m104 -26 c2 -4 -2 -16 -10 -27 -13 -18
-14 -18 -14 8 0 25 13 36 24 19z m-1664 -146 c0 -3 -4 -8 -10 -11 -5 -3 -10
-1 -10 4 0 6 5 11 10 11 6 0 10 -2 10 -4z m-120 -242 c0 -8 -4 -14 -10 -14 -5
0 -10 9 -10 21 0 11 5 17 10 14 6 -3 10 -13 10 -21z m155 -363 c3 -5 1 -12 -5
-16 -5 -3 -10 1 -10 9 0 18 6 21 15 7z m105 -5 c0 -3 -4 -8 -10 -11 -5 -3 -10
-1 -10 4 0 6 5 11 10 11 6 0 10 -2 10 -4z m460 -46 c0 -5 -8 -10 -17 -10 -15
0 -16 2 -3 10 19 12 20 12 20 0z m-60 -14 c0 -3 -4 -8 -10 -11 -5 -3 -10 -1
-10 4 0 6 5 11 10 11 6 0 10 -2 10 -4z m-365 -106 c3 -5 1 -10 -4 -10 -6 0
-11 5 -11 10 0 6 2 10 4 10 3 0 8 -4 11 -10z m90 -40 c3 -5 1 -10 -4 -10 -6 0
-11 5 -11 10 0 6 2 10 4 10 3 0 8 -4 11 -10z"/>
<path d="M3818 9273 c7 -3 16 -2 19 1 4 3 -2 6 -13 5 -11 0 -14 -3 -6 -6z"/>
<path d="M3760 9240 c19 -13 30 -13 30 0 0 6 -10 10 -22 10 -19 0 -20 -2 -8
-10z"/>
<path d="M4452 7125 c-10 -12 -9 -16 7 -25 22 -11 34 0 25 24 -7 19 -15 20
-32 1z"/>
<path d="M6430 7096 c0 -19 -4 -19 -46 -4 -27 10 -35 9 -49 -6 -18 -18 -42
-16 -37 3 1 6 -7 11 -18 11 -11 0 -19 -6 -17 -12 1 -9 -12 -13 -41 -14 -50 -2
-102 -20 -119 -42 -7 -9 -21 -16 -30 -17 -54 -5 -113 -17 -118 -26 -4 -5 -15
-9 -25 -9 -10 0 -23 -6 -27 -13 -4 -7 -28 -19 -52 -27 -41 -13 -49 -19 -77
-53 -6 -7 -41 -19 -78 -27 -51 -11 -75 -21 -95 -43 -14 -16 -36 -32 -48 -37
-56 -23 -103 -137 -84 -207 6 -22 14 -29 39 -31 30 -3 32 -1 32 29 0 53 34
111 87 145 27 18 52 29 57 27 5 -3 -4 -12 -20 -20 -16 -7 -22 -11 -13 -9 9 2
21 0 26 -5 7 -7 16 2 27 24 21 46 76 60 111 27 17 -16 24 -18 28 -8 3 7 6 3 6
-9 1 -13 6 -23 12 -23 6 0 9 14 7 33 -2 19 -8 31 -15 29 -22 -4 -14 14 11 26
14 6 53 16 88 23 35 6 72 15 83 19 36 14 129 29 215 35 228 14 275 15 357 5
221 -26 280 -72 300 -235 8 -70 14 -75 72 -57 l49 15 4 62 c3 50 9 69 31 95
25 29 28 39 25 94 -2 40 -7 61 -15 62 -7 1 -14 2 -15 4 -7 4 -49 10 -126 16
-45 4 -85 11 -88 16 -3 4 -14 8 -24 8 -10 0 -20 3 -22 8 -1 4 -28 28 -58 53
-52 44 -88 59 -155 65 -16 2 -58 6 -92 9 -53 6 -63 4 -63 -9z m287 -112 c-3
-3 -12 -4 -19 -1 -8 3 -5 6 6 6 11 1 17 -2 13 -5z"/>
<path d="M7401 6823 c-1 -12 4 -25 9 -28 12 -7 12 2 0 30 -8 19 -9 19 -9 -2z"/>
<path d="M5090 6789 c0 -5 5 -7 10 -4 6 3 10 8 10 11 0 2 -4 4 -10 4 -5 0 -10
-5 -10 -11z"/>
<path d="M5886 6639 c4 -7 -3 -19 -16 -29 -21 -16 -22 -19 -9 -49 13 -30 16
-31 57 -25 33 5 42 3 42 -8 0 -8 -3 -18 -7 -22 -5 -4 -8 -26 -9 -48 0 -22 -6
-43 -14 -48 -21 -13 60 -4 95 10 17 7 53 12 80 11 28 0 85 4 127 9 52 6 87 6
107 -1 17 -6 36 -8 43 -6 8 4 4 8 -9 12 -31 10 -29 25 2 25 17 0 23 4 19 14
-4 9 2 14 18 15 13 0 66 5 118 10 78 7 96 6 103 -5 4 -8 16 -14 25 -14 16 -1
16 -1 0 -11 -20 -11 -24 -34 -8 -44 16 -10 51 18 46 38 -2 10 1 17 10 17 8 0
14 5 14 10 0 6 -14 10 -30 10 -22 0 -33 6 -41 23 -14 30 -72 69 -92 61 -9 -3
-26 1 -39 10 -12 9 -34 16 -48 16 -14 0 -31 5 -37 11 -14 14 -305 13 -368 -1
-26 -6 -50 -8 -53 -5 -3 3 -15 -1 -26 -8 -12 -8 -33 -17 -48 -20 -23 -6 -27
-3 -37 23 -5 17 -13 30 -16 30 -3 0 -3 -5 1 -11z m154 -130 c0 -32 -17 -39
-27 -11 -4 9 -13 21 -20 25 -21 13 -7 25 22 19 20 -3 25 -10 25 -33z m328 4
c-4 -34 -48 -48 -48 -16 0 22 18 43 38 43 9 0 12 -9 10 -27z"/>
<path d="M5822 6475 c-26 -30 -26 -31 -6 -39 25 -10 86 21 82 41 -5 29 -50 28
-76 -2z"/>
<path d="M5310 6430 c0 -5 9 -10 20 -10 11 0 20 5 20 10 0 6 -9 10 -20 10 -11
0 -20 -4 -20 -10z"/>
<path d="M5875 6400 c-3 -5 1 -10 10 -10 9 0 13 5 10 10 -3 6 -8 10 -10 10 -2
0 -7 -4 -10 -10z"/>
<path d="M4960 6311 c0 -13 26 -32 33 -24 14 13 6 33 -13 33 -11 0 -20 -4 -20
-9z"/>
<path d="M5017 6234 c-11 -11 -8 -62 3 -69 6 -3 15 6 20 21 8 21 8 31 -3 41
-7 7 -16 10 -20 7z"/>
<path d="M5072 6220 c0 -14 2 -19 5 -12 2 6 2 18 0 25 -3 6 -5 1 -5 -13z"/>
<path d="M5091 6144 c0 -11 3 -14 6 -6 3 7 2 16 -1 19 -3 4 -6 -2 -5 -13z"/>
<path d="M3860 6036 c0 -2 8 -10 18 -17 15 -13 16 -12 3 4 -13 16 -21 21 -21
13z"/>
<path d="M4992 5918 c-14 -14 -16 -38 -3 -38 5 0 11 11 13 25 6 29 6 29 -10
13z"/>
<path d="M3840 5900 c0 -5 5 -10 10 -10 6 0 10 5 10 10 0 6 -4 10 -10 10 -5 0
-10 -4 -10 -10z"/>
<path d="M4915 5800 c-10 -11 -14 -20 -9 -20 5 0 15 9 22 20 7 11 11 20 9 20
-2 0 -12 -9 -22 -20z"/>
<path d="M4860 5751 c-5 -11 -10 -27 -10 -35 0 -9 -6 -16 -14 -16 -27 0 -31
-140 -5 -156 14 -8 10 -24 -6 -24 -8 0 -17 -11 -21 -24 -7 -29 40 -116 62
-116 19 0 18 -34 -1 -50 -8 -7 -15 -21 -15 -31 0 -11 -7 -19 -15 -19 -8 0 -15
-4 -15 -10 0 -13 37 -50 50 -50 6 0 10 -6 10 -14 0 -17 -51 -30 -80 -21 -27 8
-26 -14 0 -43 16 -17 17 -22 6 -22 -21 0 -31 -21 -15 -31 20 -12 4 -22 -36
-23 -44 -1 -46 -16 -3 -16 l32 0 -22 -16 c-13 -9 -29 -13 -37 -10 -20 7 -26
-7 -19 -42 4 -20 11 -29 20 -25 10 4 11 0 1 -21 -15 -33 -37 -42 -37 -16 0 11
-6 20 -12 19 -19 0 -61 -57 -55 -73 7 -18 43 -10 51 11 3 8 10 12 16 8 5 -3
-3 -24 -20 -47 -17 -23 -30 -46 -30 -53 0 -6 17 -24 37 -38 21 -15 32 -27 25
-27 -8 0 -12 -9 -10 -22 4 -27 43 -35 88 -20 15 6 31 7 35 4 11 -12 59 -8 73
6 18 16 32 6 32 -24 0 -13 5 -24 11 -24 6 0 9 7 5 15 -3 8 2 19 11 23 10 6 14
16 10 26 -5 11 -1 16 13 16 11 0 20 -5 20 -11 0 -5 5 -7 10 -4 6 4 8 10 5 15
-3 4 9 13 25 19 17 5 30 15 30 21 0 8 10 9 30 5 25 -5 30 -3 30 11 0 16 1 16
16 -2 11 -13 17 -15 20 -7 19 46 37 53 146 57 59 3 151 12 205 21 76 13 133
15 253 10 128 -6 163 -4 200 9 56 19 83 20 123 2 31 -13 107 -36 121 -36 16 0
4 31 -15 38 -11 5 -20 11 -20 15 3 22 0 27 -9 22 -6 -4 -22 0 -35 9 -19 12
-34 14 -72 7 -26 -5 -49 -13 -50 -18 -4 -12 -83 -7 -118 7 -44 17 -76 19 -82
5 -6 -17 -403 -16 -403 1 0 14 -42 50 -69 59 -26 8 -71 -19 -47 -28 9 -4 13
-13 10 -22 -8 -19 -19 -19 -40 2 -10 10 -37 18 -68 20 -54 4 -169 -13 -198
-28 -24 -12 -28 -11 -28 6 0 9 -9 15 -24 15 -14 0 -28 5 -31 10 -3 6 -1 10 4
10 6 0 11 5 11 10 0 6 -9 10 -20 10 -21 0 -29 33 -10 45 5 3 7 12 4 20 -4 8 1
18 10 21 9 3 16 17 16 30 0 15 6 24 16 24 11 0 15 6 11 20 -3 11 -1 23 5 26 5
3 7 16 4 28 -5 20 -5 20 9 2 13 -18 17 -18 42 -5 16 8 37 22 47 32 11 9 29 17
41 17 11 0 38 9 59 20 22 10 42 17 46 15 5 -3 18 4 31 14 19 15 21 22 12 33
-10 11 -7 20 12 41 14 14 25 33 25 42 0 9 5 13 10 10 6 -3 10 -15 10 -26 0
-16 3 -18 17 -10 13 7 23 5 35 -6 14 -13 18 -13 18 -3 0 11 3 11 12 2 20 -20
24 -14 21 31 -3 38 -2 40 9 18 11 -21 16 -23 58 -17 25 4 78 7 118 6 80 -2
182 24 182 46 0 7 -16 18 -35 25 -23 9 -38 22 -44 41 -8 21 -17 28 -38 29 -45
2 -66 -2 -97 -17 -16 -8 -34 -14 -40 -14 -6 0 -27 -15 -48 -34 -20 -18 -48
-36 -62 -40 -17 -4 -26 -13 -26 -26 0 -11 -5 -20 -11 -20 -6 0 -8 8 -5 18 4
12 -2 21 -23 30 -16 7 -31 22 -34 33 -4 16 -11 19 -26 14 -19 -6 -26 2 -22 28
0 4 -7 7 -18 7 -10 0 -24 7 -31 15 -9 11 -16 12 -25 5 -7 -6 -20 -8 -28 -4
-27 10 -131 -77 -122 -103 6 -19 -23 -23 -58 -8 -17 7 -40 16 -50 19 -13 4
-17 12 -12 27 5 15 2 22 -14 26 -12 3 -21 11 -21 18 0 8 -10 17 -21 20 -20 7
-21 12 -15 64 9 76 26 133 45 149 13 11 13 12 -2 12 -9 0 -21 -9 -27 -19z
m490 -330 c0 -12 -20 -25 -27 -18 -7 7 6 27 18 27 5 0 9 -4 9 -9z m-458 -153
c-9 -9 -15 -9 -24 0 -9 9 -7 12 12 12 19 0 21 -3 12 -12z m-99 -305 c-7 -2
-21 -2 -30 0 -10 3 -4 5 12 5 17 0 24 -2 18 -5z m152 -53 c-3 -5 -13 -10 -21
-10 -8 0 -14 5 -14 10 0 6 9 10 21 10 11 0 17 -4 14 -10z"/>
<path d="M6120 3941 c0 -10 30 -24 37 -17 3 3 2 9 -2 15 -8 13 -35 15 -35 2z"/>
<path d="M6000 3710 c0 -5 5 -10 10 -10 6 0 10 5 10 10 0 6 -4 10 -10 10 -5 0
-10 -4 -10 -10z"/>
<path d="M4260 3655 c0 -16 16 -20 24 -6 3 5 -1 11 -9 15 -9 3 -15 0 -15 -9z"/>
<path d="M5790 3379 c0 -11 5 -17 10 -14 6 3 10 13 10 21 0 8 -4 14 -10 14 -5
0 -10 -9 -10 -21z"/>
<path d="M4551 2626 c-7 -8 -8 -17 -3 -20 6 -3 12 3 15 14 6 24 4 25 -12 6z"/>
</g>
</svg>
